<svg width="32" height="32" viewBox="0 0 32 32" xmlns="http://www.w3.org/2000/svg" xmlns:xlink="http://www.w3.org/1999/xlink" overflow="hidden"><style>
.MsftOfcThm_Background1_Stroke_v2 {
 stroke:#FFFFFF; 
}
</style>
<g stroke-linecap="square" stroke-miterlimit="10" fill="#451DC7"><path d="M19 27 13 27 13 20 10 20 10 13C10 11.343 11.343 10 13 10L19 10C20.657 10 22 11.343 22 13L22 20 19 20 19 27Z" class="MsftOfcThm_Background1_Stroke_v2" stroke="#FFFFFF" stroke-width="1.23087" fill="none"/><circle cx="16" cy="4" r="3" class="MsftOfcThm_Background1_Stroke_v2" stroke="#FFFFFF" stroke-width="1.23087" fill="none"/><path d="M23 24.404C27.758 24.991 31 26.157 31 27.5 31 29.433 24.284 31 16 31 7.716 31 1 29.433 1 27.5 1 26.157 4.242 24.991 9 24.404" class="MsftOfcThm_Background1_Stroke_v2" stroke="#FFFFFF" stroke-width="1.23087" stroke-linecap="butt" fill="none"/></g></svg>